<svg width="1000" height="1000" viewBox="0 0 1000 1000" fill="none" xmlns="http://www.w3.org/2000/svg">
<circle cx="500" cy="500" r="500" fill="#231F20"/>
<g clip-path="url(#clip0_72_42)">
<mask id="mask0_72_42" style="mask-type:luminance" maskUnits="userSpaceOnUse" x="-778" y="-214" width="2561" height="1441">
<path d="M-777.184 -213.988H1782.82V1226.01H-777.184V-213.988Z" fill="white"/>
</mask>
<g mask="url(#mask0_72_42)">
<path d="M417.387 403.645C446.527 413.356 451.054 403.162 462.681 374.804C475.823 342.748 482.678 321.329 461.085 311.013C439.034 300.478 425.723 308.944 413.39 335.144C402.787 357.669 390.014 394.524 417.387 403.645ZM257.109 317.132C249.79 302.238 239.462 298.58 220.163 308.733C199.622 319.54 196.051 328.548 204.045 345.738C232.867 407.725 253.927 462.805 261.754 515.844C268.362 560.618 269.807 631.637 217.821 642.382C176.707 650.88 133.139 614.433 106.769 588.442C100.653 582.416 90.4928 576.664 76.3448 589.146C63.5408 600.444 59.2848 608.702 70.3875 621.62C86.4155 640.265 147.295 701.252 222.918 697.326C303.434 693.146 329.217 607.334 319.906 518.044C315.218 473.081 291.617 381.424 257.109 317.132ZM939.083 570.385C929.198 584.428 881.674 648.75 814.165 648.75C736.858 648.75 721.413 567.102 721.413 567.024C721.413 567.006 707.413 599.422 701.269 611.489C693.21 627.312 686.427 645.06 662.567 645.06C639.963 645.06 632.846 630.944 626.175 609.176C622.974 598.729 615.258 568.201 615.209 568.217C615.194 568.221 601.405 600.116 596.401 610.216C590.694 621.737 580.457 643.205 560.211 643.205C540.498 643.205 531.682 629.925 528.735 604.898C526.702 587.621 524.041 552.778 524.038 552.778C524.038 552.778 500.626 577.218 485.23 590.256C469.659 603.442 444.453 619.798 414.595 615.812C380.882 611.309 358.931 588.396 358.538 542.71C358.218 505.553 365.761 469.381 373.318 450.904C379.833 434.976 388.693 432.369 412.542 439.384C434.053 445.71 433.645 457.185 427.726 474.945C422.665 490.129 408.434 544.612 418.951 558.696C433.331 577.95 469.526 541.897 500.639 509.822C514.911 495.108 527.615 483.608 545.925 483.608C563.123 483.608 567.751 502.178 569.543 518.281C570.669 528.396 572.561 553.901 572.561 553.901C572.561 553.901 591.497 517.74 594.221 512.104C599.882 500.393 609.855 484.934 625.695 484.934C645.57 484.934 650.523 502.868 652.342 509.904C655.387 521.685 665.895 566.61 665.913 566.614C666.53 566.762 681.694 532.617 687.277 521.609C695.998 504.413 705.983 483.229 730.061 483.229C771.227 483.229 758.625 599.912 819.497 599.912C858.895 599.912 884.071 566.861 899.093 548.788C909.805 535.898 916.993 532.973 931.565 541.386C946.777 550.166 946.426 559.258 939.083 570.385Z" fill="white"/>
</g>
</g>
<defs>
<clipPath id="clip0_72_42">
<rect width="880" height="394.507" fill="white" transform="translate(64 303)"/>
</clipPath>
</defs>
</svg>
