<?xml version="1.0" encoding="UTF-8"?><svg id="Layer_1" xmlns="http://www.w3.org/2000/svg" viewBox="0 0 272.87 41.22"><path d="M16.14.6v26.58c0,6.36-.66,9.24-2.64,11.34-1.62,1.8-4.44,2.7-8.1,2.7-1.56,0-2.52-.12-5.4-.6v-7.32c1.68.24,2.58.36,3.54.36,3.12,0,3.84-1.2,3.84-6.48V.6h8.76Z" fill="#231f20"/><path d="M30.78.6v40.02h-8.76V.6h8.76Z" fill="#231f20"/><path d="M49.74.6l5.64,24.72L61.74.6h12.48v40.02h-8.22V7.14l-8.16,33.48h-6.42l-7.44-33.48v33.48h-7.14V.6h12.9Z" fill="#231f20"/><path d="M113.22.6v6.24l-16.74,26.64h17.28v7.14h-27.48v-6.12l16.86-26.76h-15.66V.6h25.74Z" fill="#231f20"/><path d="M134.88.6l11.4,40.02h-9l-1.98-8.22h-11.28l-1.92,8.22h-8.1L126,.6h8.88ZM129.6,9.18l-3.9,16.32h7.92l-4.02-16.32Z" fill="#231f20"/><path d="M165.89,12.12c-1.08-3.48-2.82-4.98-5.64-4.98-2.46,0-4.2,1.5-4.2,3.66,0,2.28,1.14,3.18,6.9,5.34,3.9,1.5,5.34,2.22,7.08,3.66,2.58,2.1,3.96,5.04,3.96,8.64,0,7.68-5.7,12.78-14.16,12.78-7.38,0-11.88-3.54-13.92-10.98l7.68-2.16c1.14,4.2,3.06,6,6.42,6,3.06,0,5.1-1.74,5.1-4.32,0-2.28-1.38-3.54-5.52-5.04-5.04-1.8-6.36-2.46-8.34-4.08-2.4-2.1-3.72-4.98-3.72-8.4,0-7.32,5.1-12.24,12.84-12.24,3.54,0,6.6.96,8.88,2.82,1.92,1.5,2.88,3.12,3.96,6.48l-7.32,2.82Z" fill="#231f20"/><path d="M186.65.6v32.52h12.9v7.5h-21.66V.6h8.76Z" fill="#231f20"/><path d="M220.67.6l11.4,40.02h-9l-1.98-8.22h-11.28l-1.92,8.22h-8.1L211.79.6h8.88ZM215.39,9.18l-3.9,16.32h7.92l-4.02-16.32Z" fill="#231f20"/><path d="M238.19.6l4.2,27.72,5.22-27.72h8.04l4.92,27.78,4.92-27.78h7.38l-8.58,40.2h-7.86l-5.34-27.78-5.46,27.78h-7.74L229.19.6h9Z" fill="#231f20"/></svg>